<svg width="28" height="32" viewBox="0 0 28 32" fill="none" xmlns="http://www.w3.org/2000/svg">
<path d="M3.12548 20.5742L0.0991177 26.626C-0.0463902 26.9167 -0.0307652 27.2622 0.139889 27.5386C0.311032 27.8147 0.612301 27.9829 0.937252 27.9829H5.48974L8.22119 31.6248C8.39868 31.8623 8.67724 31.9998 8.97046 31.9998C9.35986 31.9998 9.66674 31.7673 9.80932 31.4817L12.6611 25.7778C8.80542 25.4092 5.406 23.4541 3.12548 20.5742Z" fill="#1A2DF3"/>
<path d="M27.8843 26.626L24.8579 20.5742C22.5774 23.4541 19.178 25.4092 15.3223 25.7778L18.1743 31.4817C18.3167 31.7673 18.6235 31.9998 19.0129 31.9998C19.3062 31.9998 19.585 31.8623 19.7625 31.6248L22.4937 27.9829H27.0461C27.3711 27.9829 27.6724 27.8147 27.8435 27.5386C28.0142 27.2622 28.0298 26.9167 27.8843 26.626V26.626Z" fill="#1A2DF3"/>
<path fill-rule="evenodd" clip-rule="evenodd" d="M13.9917 0C20.5994 0 25.9751 5.37573 25.9751 11.9834C25.9751 18.5911 20.5994 23.9668 13.9917 23.9668C7.38403 23.9668 2.0083 18.5908 2.0083 11.9834C2.0083 5.37573 7.38403 0 13.9917 0ZM18.7773 13.5383L21.3955 10.4133C21.603 10.1658 21.6685 9.82886 21.5686 9.52173C21.4688 9.2146 21.2178 8.98022 20.9043 8.90186L16.9497 7.9126L14.7864 4.45679C14.615 4.18311 14.3147 4.01685 13.9917 4.01685C13.6687 4.01685 13.3684 4.18311 13.197 4.45679L11.0342 7.9126L7.07959 8.90186C6.76611 8.98022 6.51514 9.2146 6.41528 9.52173C6.31543 9.82886 6.38086 10.1658 6.58838 10.4136L9.20654 13.5383L8.9248 17.6052C8.90259 17.9275 9.04761 18.2385 9.30884 18.4285C9.70557 18.7166 10.1091 18.5803 10.2104 18.5396L13.9917 17.0154L17.7729 18.5396C18.0725 18.6602 18.4131 18.6182 18.6746 18.4285C18.9358 18.2385 19.0808 17.9275 19.0586 17.6052L18.7773 13.5383Z" fill="#1A2DF3"/>
</svg>
