<svg width="21" height="29" viewBox="0 0 21 29" fill="none" xmlns="http://www.w3.org/2000/svg">
<path fill-rule="evenodd" clip-rule="evenodd" d="M11.0906 1.28627C12.1926 2.63909 14.328 5.38165 16.2478 8.55049C18.722 12.6341 19.9763 16.0113 19.9763 18.5883C19.9763 23.8201 15.7199 28.0764 10.4881 28.0764C5.25635 28.0764 1 23.8201 1 18.5883C1 16.013 2.25449 12.6363 4.72859 8.55218C6.64844 5.38307 8.78378 2.63958 9.88578 1.28634C10.0333 1.10517 10.2546 1 10.4882 1C10.7218 0.999929 10.9431 1.1051 11.0906 1.28627ZM10.0805 24.7952C10.661 24.7952 11.2361 24.7234 11.7902 24.5818C11.975 24.5344 12.0978 24.3718 12.0825 24.1942C12.0673 24.0166 11.9186 23.874 11.7281 23.8543C7.89898 23.4588 5.01147 20.4579 5.01147 16.8744C5.01147 16.6686 5.02376 16.4515 5.04792 16.2291C5.06812 16.0432 4.93646 15.8723 4.74039 15.83C4.54417 15.7877 4.34513 15.8876 4.27528 16.0628C3.86172 17.0995 3.65195 18.0283 3.65195 18.8233C3.65195 22.1162 6.53578 24.7952 10.0805 24.7952Z" fill="#1A2DF3"/>
<path d="M16.2478 8.55049L15.8202 8.80957L15.8202 8.80958L16.2478 8.55049ZM11.0906 1.28627L10.7028 1.60193L10.7029 1.60207L11.0906 1.28627ZM19.9763 18.5883L19.4763 18.5883V18.5883H19.9763ZM4.72859 8.55218L4.30094 8.29311L4.30094 8.29312L4.72859 8.55218ZM9.88578 1.28634L9.49809 0.970596L9.49808 0.970615L9.88578 1.28634ZM10.4882 1V1.5L10.4884 1.5L10.4882 1ZM11.7902 24.5818L11.914 25.0662L11.9142 25.0661L11.7902 24.5818ZM12.0825 24.1942L11.5843 24.2368L11.5843 24.237L12.0825 24.1942ZM11.7281 23.8543L11.7795 23.357L11.7795 23.357L11.7281 23.8543ZM5.04792 16.2291L4.55084 16.1751L4.55084 16.1751L5.04792 16.2291ZM4.74039 15.83L4.63483 16.3188L4.63509 16.3188L4.74039 15.83ZM4.27528 16.0628L4.73969 16.248L4.73971 16.248L4.27528 16.0628ZM16.6755 8.2914C14.7388 5.09484 12.5876 2.33225 11.4782 0.970473L10.7029 1.60207C11.7977 2.94592 13.9171 5.66847 15.8202 8.80957L16.6755 8.2914ZM20.4763 18.5883C20.4763 15.871 19.1627 12.3966 16.6755 8.2914L15.8202 8.80958C18.2813 12.8717 19.4763 16.1517 19.4763 18.5883L20.4763 18.5883ZM10.4881 28.5764C15.9961 28.5764 20.4763 24.0962 20.4763 18.5883H19.4763C19.4763 23.5439 15.4438 27.5764 10.4881 27.5764V28.5764ZM0.5 18.5883C0.5 24.0962 4.98021 28.5764 10.4881 28.5764V27.5764C5.5325 27.5764 1.5 23.5439 1.5 18.5883H0.5ZM4.30094 8.29312C1.81385 12.3987 0.5 15.8727 0.5 18.5883H1.5C1.5 16.1534 2.69514 12.8739 5.15624 8.81125L4.30094 8.29312ZM9.49808 0.970615C8.38879 2.3328 6.23757 5.0963 4.30094 8.29311L5.15624 8.81125C7.05931 5.66984 9.17878 2.94636 10.2735 1.60207L9.49808 0.970615ZM10.4882 0.5C10.1041 0.5 9.74056 0.672878 9.49809 0.970596L10.2735 1.60209C10.3261 1.53746 10.405 1.5 10.4882 1.5V0.5ZM11.4783 0.970616C11.2359 0.672782 10.8721 0.499884 10.4881 0.5L10.4884 1.5C10.5715 1.49997 10.6503 1.53742 10.7028 1.60193L11.4783 0.970616ZM11.6663 24.0973C11.1534 24.2285 10.6199 24.2952 10.0805 24.2952V25.2952C10.7022 25.2952 11.3189 25.2184 11.914 25.0662L11.6663 24.0973ZM11.5843 24.237C11.5765 24.1461 11.6393 24.1043 11.6662 24.0974L11.9142 25.0661C12.3107 24.9646 12.619 24.5975 12.5807 24.1514L11.5843 24.237ZM11.6767 24.3517C11.6546 24.3494 11.5917 24.3236 11.5843 24.2368L12.5807 24.1516C12.5429 23.7095 12.1827 23.3987 11.7795 23.357L11.6767 24.3517ZM4.51147 16.8744C4.51147 20.7426 7.622 23.9328 11.6767 24.3517L11.7795 23.357C8.17595 22.9847 5.51147 20.1732 5.51147 16.8744H4.51147ZM4.55084 16.1751C4.52491 16.4138 4.51147 16.6491 4.51147 16.8744H5.51147C5.51147 16.6882 5.52261 16.4891 5.54499 16.2831L4.55084 16.1751ZM4.63509 16.3188C4.61927 16.3154 4.59753 16.3047 4.57919 16.2809C4.56034 16.2564 4.54614 16.2183 4.55084 16.1751L5.54499 16.2831C5.59584 15.8152 5.26413 15.4314 4.84568 15.3412L4.63509 16.3188ZM4.73971 16.248C4.7254 16.2838 4.70124 16.3034 4.68438 16.3119C4.66761 16.3203 4.65035 16.3221 4.63483 16.3188L4.84594 15.3413C4.43271 15.252 3.97907 15.4557 3.81084 15.8776L4.73971 16.248ZM4.15195 18.8233C4.15195 18.1118 4.34084 17.2479 4.73969 16.248L3.81086 15.8775C3.38261 16.9511 3.15195 17.9448 3.15195 18.8233H4.15195ZM10.0805 24.2952C6.77659 24.2952 4.15195 21.806 4.15195 18.8233H3.15195C3.15195 22.4264 6.29497 25.2952 10.0805 25.2952V24.2952Z" fill="#1A2DF3"/>
</svg>
