<svg width="27" height="27" viewBox="0 0 27 27" fill="none" xmlns="http://www.w3.org/2000/svg">
<path fill-rule="evenodd" clip-rule="evenodd" d="M3.86458 1H23.1354C24.7156 1 26 2.28437 26 3.86458V23.1354C26 24.7156 24.7156 26 23.1354 26H3.86458C2.28437 26 1 24.7156 1 23.1354V3.86458C1 2.28437 2.28437 1 3.86458 1ZM13.5 19.75C17.5083 19.75 21.1604 17.424 22.8052 13.825C22.8979 13.6187 22.8979 13.3813 22.8052 13.175C21.1604 9.57604 17.5083 7.25 13.5 7.25C9.49167 7.25 5.83958 9.57604 4.19479 13.176C4.10104 13.3823 4.10104 13.6187 4.19479 13.825C5.83958 17.424 9.49167 19.75 13.5 19.75Z" fill="#1A2DF3"/>
<path d="M22.8052 13.825L23.26 14.0328L23.2613 14.03L22.8052 13.825ZM22.8052 13.175L23.2613 12.97L23.26 12.9672L22.8052 13.175ZM4.19479 13.176L3.74001 12.9683L3.73961 12.9691L4.19479 13.176ZM4.19479 13.825L3.73961 14.0319L3.74003 14.0328L4.19479 13.825ZM23.1354 0.5H3.86458V1.5H23.1354V0.5ZM26.5 3.86458C26.5 2.00823 24.9918 0.5 23.1354 0.5V1.5C24.4395 1.5 25.5 2.56052 25.5 3.86458H26.5ZM26.5 23.1354V3.86458H25.5V23.1354H26.5ZM23.1354 26.5C24.9918 26.5 26.5 24.9918 26.5 23.1354H25.5C25.5 24.4395 24.4395 25.5 23.1354 25.5V26.5ZM3.86458 26.5H23.1354V25.5H3.86458V26.5ZM0.5 23.1354C0.5 24.9918 2.00823 26.5 3.86458 26.5V25.5C2.56052 25.5 1.5 24.4395 1.5 23.1354H0.5ZM0.5 3.86458V23.1354H1.5V3.86458H0.5ZM3.86458 0.5C2.00823 0.5 0.5 2.00823 0.5 3.86458H1.5C1.5 2.56052 2.56052 1.5 3.86458 1.5V0.5ZM22.3505 13.6172C20.7883 17.0352 17.3158 19.25 13.5 19.25V20.25C17.7008 20.25 21.5325 17.8127 23.26 14.0328L22.3505 13.6172ZM22.3492 13.38C22.3833 13.4559 22.3833 13.5441 22.3492 13.62L23.2613 14.03C23.4126 13.6934 23.4126 13.3066 23.2613 12.97L22.3492 13.38ZM13.5 7.75C17.3158 7.75 20.7883 9.96476 22.3505 13.3828L23.26 12.9672C21.5325 9.18732 17.7008 6.75 13.5 6.75V7.75ZM4.64957 13.3838C6.21171 9.96474 9.68419 7.75 13.5 7.75V6.75C9.29915 6.75 5.46746 9.18734 3.74001 12.9683L4.64957 13.3838ZM4.64997 13.6181C4.61598 13.5433 4.61598 13.4577 4.64997 13.3829L3.73961 12.9691C3.5861 13.3069 3.5861 13.6942 3.73961 14.0319L4.64997 13.6181ZM13.5 19.25C9.68417 19.25 6.21167 17.0352 4.64955 13.6172L3.74003 14.0328C5.46749 17.8127 9.29917 20.25 13.5 20.25V19.25Z" fill="white"/>
<circle cx="13.5" cy="13.5" r="3.125" fill="#1A2DF3" stroke="white" stroke-linejoin="round"/>
</svg>
