<svg width="32" height="31" viewBox="0 0 32 31" fill="none" xmlns="http://www.w3.org/2000/svg">
<path d="M25.668 8.14551C23.729 8.14551 22.1523 9.74781 22.1523 11.7182C22.1523 13.6886 23.729 15.2909 25.668 15.2909C27.6069 15.2909 29.1836 13.6886 29.1836 11.7182C29.1836 9.74781 27.6069 8.14551 25.668 8.14551Z" fill="#1A2DF3" stroke="white" stroke-linejoin="round"/>
<path d="M20.3945 1C18.4556 1 16.8789 2.6023 16.8789 4.57272C16.8789 6.54313 18.4556 8.14543 20.3945 8.14543C22.3335 8.14543 23.9102 6.54313 23.9102 4.57272C23.9102 2.6023 22.3335 1 20.3945 1Z" fill="#1A2DF3" stroke="white" stroke-linejoin="round"/>
<path d="M15.1211 8.14551C13.1822 8.14551 11.6055 9.74781 11.6055 11.7182C11.6055 13.6886 13.1822 15.2909 15.1211 15.2909C17.06 15.2909 18.6367 13.6886 18.6367 11.7182C18.6367 9.74781 17.06 8.14551 15.1211 8.14551Z" fill="#1A2DF3" stroke="white" stroke-linejoin="round"/>
<path fill-rule="evenodd" clip-rule="evenodd" d="M1.87891 17.0771H3.63672C5.09066 17.0771 6.27344 18.2791 6.27344 19.7567V26.9021C6.27344 28.3797 5.09066 29.5817 3.63672 29.5817H1.87891C1.39311 29.5817 1 29.1822 1 28.6885V17.9703C1 17.4766 1.39311 17.0771 1.87891 17.0771ZM2.75781 21.543C2.75781 22.0363 3.15133 22.4362 3.63672 22.4362C4.12211 22.4362 4.51562 22.0363 4.51562 21.543C4.51562 21.0498 4.12211 20.6499 3.63672 20.6499C3.15133 20.6499 2.75781 21.0498 2.75781 21.543Z" fill="#1A2DF3"/>
<path d="M3.63672 16.5771H1.87891V17.5771H3.63672V16.5771ZM6.77344 19.7567C6.77344 18.0106 5.37437 16.5771 3.63672 16.5771V17.5771C4.80696 17.5771 5.77344 18.5476 5.77344 19.7567H6.77344ZM6.77344 26.9021V19.7567H5.77344V26.9021H6.77344ZM3.63672 30.0817C5.37437 30.0817 6.77344 28.6482 6.77344 26.9021H5.77344C5.77344 28.1112 4.80696 29.0817 3.63672 29.0817V30.0817ZM1.87891 30.0817H3.63672V29.0817H1.87891V30.0817ZM0.5 28.6885C0.5 29.4507 1.1094 30.0817 1.87891 30.0817V29.0817C1.67681 29.0817 1.5 28.9136 1.5 28.6885H0.5ZM0.5 17.9703V28.6885H1.5V17.9703H0.5ZM1.87891 16.5771C1.1094 16.5771 0.5 17.2081 0.5 17.9703H1.5C1.5 17.7452 1.67681 17.5771 1.87891 17.5771V16.5771ZM3.63672 21.9362C3.43503 21.9362 3.25781 21.7678 3.25781 21.543H2.25781C2.25781 22.3048 2.86762 22.9362 3.63672 22.9362V21.9362ZM4.01562 21.543C4.01562 21.7678 3.8384 21.9362 3.63672 21.9362V22.9362C4.40581 22.9362 5.01562 22.3048 5.01562 21.543H4.01562ZM3.63672 21.1499C3.8384 21.1499 4.01562 21.3183 4.01562 21.543H5.01562C5.01562 20.7813 4.40581 20.1499 3.63672 20.1499V21.1499ZM3.25781 21.543C3.25781 21.3183 3.43503 21.1499 3.63672 21.1499V20.1499C2.86762 20.1499 2.25781 20.7813 2.25781 21.543H3.25781Z" fill="white"/>
<path d="M30.2761 17.4197C29.552 16.8825 28.5574 16.9915 27.9556 17.6458L23.148 23.6546C22.8254 24.0072 22.187 24.2225 21.8622 24.2225C19.967 24.2225 22.421 24.2225 16.7845 24.2225C16.4498 24.2225 16.1485 24.4109 15.9992 24.7153C15.7804 25.1611 15.2476 25.334 14.8207 25.1157C14.3864 24.8959 14.2096 24.3594 14.4268 23.9181C14.8748 23.0039 15.7786 22.4361 16.7845 22.4361C18.5791 22.4361 19.4844 22.4361 21.2734 22.4361C22.2443 22.4361 23.0312 21.6364 23.0312 20.6498C23.0312 19.6631 22.2443 18.8634 21.2734 18.8634H18.6367C17.9954 18.8634 17.9536 18.7414 17.4273 18.2712C15.2845 16.3551 10.3263 17.2334 8.03125 18.8634V27.7952C9.02441 28.1773 11.8997 29.5815 12.9641 29.5815H21.2734C22.9257 29.5815 24.5024 28.7799 25.492 27.4367L30.649 19.9345C31.2355 19.1426 31.0704 18.0088 30.2761 17.4197Z" fill="#1A2DF3" stroke="white" stroke-linejoin="round"/>
</svg>
