<svg width="29" height="29" viewBox="0 0 29 29" fill="none" xmlns="http://www.w3.org/2000/svg">
<path d="M27.9773 4.50799H7.7128L7.13289 1H1.99831C1.16951 1 0.5 1.69759 0.5 2.55889V4.11713H4.60791L7.25111 20.1066C7.3096 20.4586 7.63502 20.744 7.97911 20.744H25.7292C26.558 20.744 27.2288 20.0471 27.2288 19.1838V17.6269H9.88187L9.51662 15.4176H23.2316C24.8868 15.4176 26.4498 14.0406 26.7229 12.3439L27.9773 4.50799Z" fill="#1A2DF3" stroke="white" stroke-linejoin="round"/>
<ellipse cx="12.615" cy="25.3559" rx="2.59156" ry="2.69522" fill="#1A2DF3" stroke="white" stroke-linejoin="round"/>
<path d="M19.0186 25.3555C19.0186 26.8432 20.1778 28.0501 21.6082 28.0501C23.04 28.0501 24.2017 26.8432 24.2017 25.3555C24.2017 23.8678 23.04 22.6597 21.6082 22.6597C20.1778 22.6597 19.0186 23.8685 19.0186 25.3555Z" fill="#1A2DF3" stroke="white" stroke-linejoin="round"/>
</svg>
