<svg width="30" height="34" viewBox="0 0 30 34" fill="none" xmlns="http://www.w3.org/2000/svg">
<path d="M24.8598 11.8265L18.5025 5.38379C15.1171 6.53179 3.2478 7.13712 5.95713 16.4211C5.95713 16.4491 5.9718 16.4771 5.9718 16.5051H9.56647C9.58113 16.4345 9.60913 16.3505 9.65047 16.2798C10.3838 14.9825 11.7225 14.1651 13.2025 14.0811C15.9051 13.9531 17.0571 16.0785 17.1918 16.1958C17.3891 16.4771 17.3611 16.8585 17.1358 17.0985L16.4305 17.8038L11.7078 22.5265C11.0878 23.1465 10.9331 24.1051 11.3411 24.7825C11.9185 25.7545 13.3571 25.9238 14.1465 25.1345L18.4878 20.7225L20.2638 18.9185L24.8598 11.8265Z" fill="#1A2DF3" stroke="white" stroke-linejoin="round"/>
<path d="M27.1572 11.84C27.6332 11.84 27.6892 11.5093 29.2439 10.036C29.5252 9.75467 29.5252 9.31733 29.2439 9.03467C21.1705 1.07333 21.4772 1 20.9132 1C20.7439 1 20.5612 1.07067 20.4199 1.212C19.0385 2.68267 18.6719 2.74533 18.6719 3.256C18.6719 3.668 18.9772 3.82533 19.1505 4.04533C19.2892 4.128 26.5145 11.492 26.6492 11.6293C26.7905 11.756 26.9185 11.7973 27.1572 11.84Z" fill="#1A2DF3" stroke="white" stroke-linejoin="round"/>
<path fill-rule="evenodd" clip-rule="evenodd" d="M14.78 17.6665C14.7933 17.6798 10.78 21.7465 10.78 21.7465C10.6329 21.8936 10.4974 22.0535 10.3824 22.2132C10.4951 22.0533 10.6192 21.894 10.7667 21.7465C10.6133 21.8999 10.4861 22.062 10.3718 22.228C10.3674 22.2342 10.363 22.2403 10.3587 22.2465C8.984 24.2558 10.3613 26.9865 12.8067 26.9865C13.62 26.9865 14.3933 26.6665 14.9667 26.0932L19.1933 21.7998V32.3332C19.1933 32.7065 18.8867 32.9998 18.5267 32.9998H1.16667C0.793333 32.9998 0.5 32.7065 0.5 32.3332V18.3332C0.5 17.9598 0.793333 17.6665 1.16667 17.6665H14.78ZM10.3718 22.228C10.3678 22.2337 10.3639 22.2394 10.36 22.2452C10.3674 22.2345 10.3749 22.2239 10.3824 22.2132C10.3788 22.2182 10.3753 22.2231 10.3718 22.228Z" fill="#1A2DF3"/>
<path d="M10.78 21.7465L11.1336 22.1001L11.1359 22.0977L10.78 21.7465ZM14.78 17.6665L15.1336 17.313C15.0398 17.2192 14.9126 17.1665 14.78 17.1665V17.6665ZM11.1202 22.1001C11.3155 21.9048 11.3155 21.5882 11.1202 21.3929C10.925 21.1977 10.6084 21.1977 10.4131 21.393L11.1202 22.1001ZM10.3587 22.2465L9.94961 21.9589L9.946 21.9642L10.3587 22.2465ZM14.9667 26.0932L15.3202 26.4467L15.323 26.4439L14.9667 26.0932ZM19.1933 21.7998H19.6933C19.6933 21.5969 19.5707 21.4141 19.3829 21.3372C19.1951 21.2602 18.9794 21.3044 18.837 21.4491L19.1933 21.7998ZM10.36 22.2452L9.94694 21.9634C9.79183 22.1908 9.8497 22.5008 10.0764 22.657C10.3031 22.8131 10.6134 22.7566 10.7705 22.5306L10.36 22.2452ZM10.78 21.7465C11.1359 22.0977 11.1359 22.0977 11.1359 22.0977C11.136 22.0976 11.136 22.0976 11.1361 22.0975C11.1362 22.0974 11.1364 22.0972 11.1366 22.097C11.1371 22.0965 11.1378 22.0957 11.1388 22.0948C11.1407 22.0928 11.1436 22.0899 11.1474 22.086C11.155 22.0783 11.1663 22.0669 11.181 22.052C11.2104 22.0222 11.2535 21.9785 11.3084 21.9229C11.4181 21.8116 11.5749 21.6527 11.7629 21.4619C12.1391 21.0804 12.6404 20.5715 13.1415 20.0621C13.6424 19.5529 14.1433 19.0428 14.5182 18.6591C14.7056 18.4673 14.8622 18.3064 14.9719 18.1927C15.0264 18.1361 15.0707 18.0898 15.1017 18.0568C15.1167 18.0408 15.1313 18.0251 15.143 18.012C15.148 18.0064 15.1578 17.9954 15.168 17.9826C15.1714 17.9783 15.1851 17.9613 15.1999 17.9384C15.205 17.9304 15.2259 17.8982 15.244 17.853C15.2538 17.8265 15.2724 17.7537 15.2784 17.7071C15.2782 17.6239 15.2143 17.4187 15.1336 17.313L14.4264 18.0201C14.3458 17.9144 14.2819 17.7092 14.2817 17.6262C14.2877 17.5797 14.3062 17.507 14.3159 17.4807C14.3339 17.4359 14.3545 17.4042 14.3593 17.3967C14.3733 17.375 14.3857 17.3596 14.3874 17.3575C14.3942 17.3491 14.3986 17.3442 14.3963 17.3468C14.3937 17.3498 14.3865 17.3577 14.3728 17.3722C14.3465 17.4002 14.3059 17.4427 14.252 17.4986C14.1448 17.6098 13.99 17.7688 13.803 17.9602C13.4292 18.3427 12.9293 18.8518 12.4285 19.3609C11.9279 19.8699 11.4268 20.3785 11.0508 20.7599C10.8628 20.9505 10.7061 21.1094 10.5965 21.2206C10.5416 21.2762 10.4985 21.3199 10.4692 21.3497C10.4545 21.3645 10.4432 21.376 10.4356 21.3836C10.4318 21.3875 10.4289 21.3904 10.427 21.3924C10.4261 21.3933 10.4253 21.3941 10.4248 21.3946C10.4246 21.3948 10.4244 21.395 10.4243 21.3951C10.4242 21.3952 10.4242 21.3952 10.4242 21.3952C10.4241 21.3953 10.4241 21.3953 10.78 21.7465ZM10.788 22.5056C10.8874 22.3676 11.0054 22.2282 11.1336 22.1001L10.4264 21.393C10.2603 21.5591 10.1075 21.7395 9.97672 21.9209L10.788 22.5056ZM10.4131 21.393C10.2379 21.5681 10.0954 21.7524 9.97363 21.9252L10.7911 22.5012C10.8947 22.3541 11.0004 22.2199 11.1202 22.1001L10.4131 21.393ZM10.7836 22.5116C10.8858 22.3632 10.9939 22.2264 11.1202 22.1001L10.4131 21.393C10.2326 21.5734 10.0864 21.7608 9.95994 21.9445L10.7836 22.5116ZM10.7677 22.5341C10.7714 22.5288 10.7751 22.5236 10.7789 22.5182L9.96461 21.9378C9.95961 21.9448 9.95462 21.9518 9.94964 21.9589L10.7677 22.5341ZM12.8067 26.4865C10.7807 26.4865 9.61385 24.2207 10.7713 22.5288L9.946 21.9642C8.35415 24.291 9.94195 27.4865 12.8067 27.4865V26.4865ZM14.6131 25.7396C14.1338 26.2189 13.4877 26.4865 12.8067 26.4865V27.4865C13.7523 27.4865 14.6529 27.1141 15.3202 26.4467L14.6131 25.7396ZM18.837 21.4491L14.6104 25.7424L15.323 26.4439L19.5496 22.1506L18.837 21.4491ZM19.6933 32.3332V21.7998H18.6933V32.3332H19.6933ZM18.5267 33.4998C19.1563 33.4998 19.6933 32.9891 19.6933 32.3332H18.6933C18.6933 32.4239 18.617 32.4998 18.5267 32.4998V33.4998ZM1.16667 33.4998H18.5267V32.4998H1.16667V33.4998ZM0 32.3332C0 32.9826 0.517191 33.4998 1.16667 33.4998V32.4998C1.06948 32.4998 1 32.4304 1 32.3332H0ZM0 18.3332V32.3332H1V18.3332H0ZM1.16667 17.1665C0.517191 17.1665 0 17.6837 0 18.3332H1C1 18.236 1.06948 18.1665 1.16667 18.1665V17.1665ZM14.78 17.1665H1.16667V18.1665H14.78V17.1665ZM10.7731 22.5269C10.7765 22.5218 10.7801 22.5167 10.7836 22.5116L9.95994 21.9445C9.95559 21.9508 9.95126 21.9571 9.94694 21.9634L10.7731 22.5269ZM9.97363 21.9252C9.96549 21.9368 9.95745 21.9483 9.94949 21.9597L10.7705 22.5306C10.7774 22.5208 10.7842 22.511 10.7911 22.5012L9.97363 21.9252ZM10.7789 22.5182C10.7819 22.514 10.7849 22.5098 10.788 22.5056L9.97672 21.9209C9.97267 21.9265 9.96864 21.9321 9.96462 21.9378L10.7789 22.5182Z" fill="white"/>
</svg>
