<svg width="31" height="30" viewBox="0 0 31 30" fill="none" xmlns="http://www.w3.org/2000/svg">
<path d="M28.4653 29.4031C18.5782 28.5512 22.6269 28.8999 9.75488 27.7916L10.0343 24.5473L10.9169 24.6233L18.568 5.8484L18.644 4.96582C23.5242 5.38653 21.031 5.17175 30.4821 5.98558L28.4653 29.4031Z" fill="#1A2DF3" stroke="white" stroke-linejoin="round"/>
<path d="M19.2052 1.04297L21.2946 24.4539C20.2405 24.548 3.59933 26.0333 2.58884 26.1235L0.5 2.71252C12.0571 1.68065 7.67809 2.07147 19.2052 1.04297Z" fill="#1A2DF3" stroke="white" stroke-linejoin="round"/>
<path d="M14.9778 6.16309L15.1351 7.92777C7.31284 8.62574 7.85774 8.57714 5.72367 8.76759L5.56641 7.00291C6.7145 6.90045 13.8347 6.26513 14.9778 6.16309Z" fill="#1A2DF3" stroke="white" stroke-linejoin="round"/>
</svg>
