<svg width="29" height="29" viewBox="0 0 29 29" fill="none" xmlns="http://www.w3.org/2000/svg">
<path d="M28.4773 4.62371H8.2128L7.63289 1.11572H2.49831C1.66951 1.11572 1 1.81331 1 2.67461V4.23286H5.10791L7.75111 20.2223C7.8096 20.5744 8.13502 20.8597 8.47911 20.8597H26.2292C27.058 20.8597 27.7288 20.1628 27.7288 19.2995V17.7426H10.3819L10.0166 15.5334H23.7316C25.3868 15.5334 26.9498 14.1563 27.2229 12.4596L28.4773 4.62371Z" fill="#1A2DF3" stroke="white" stroke-linejoin="round"/>
<ellipse cx="13.115" cy="25.4716" rx="2.59156" ry="2.69522" fill="#1A2DF3" stroke="white" stroke-linejoin="round"/>
<path d="M19.5186 25.4713C19.5186 26.959 20.6778 28.1658 22.1082 28.1658C23.54 28.1658 24.7017 26.959 24.7017 25.4713C24.7017 23.9835 23.54 22.7754 22.1082 22.7754C20.6778 22.7754 19.5186 23.9842 19.5186 25.4713Z" fill="#1A2DF3" stroke="white" stroke-linejoin="round"/>
</svg>
