<svg width="31" height="31" viewBox="0 0 31 31" fill="none" xmlns="http://www.w3.org/2000/svg">
<path d="M25.168 8.14551C23.229 8.14551 21.6523 9.74781 21.6523 11.7182C21.6523 13.6886 23.229 15.2909 25.168 15.2909C27.1069 15.2909 28.6836 13.6886 28.6836 11.7182C28.6836 9.74781 27.1069 8.14551 25.168 8.14551Z" fill="#1A2DF3" stroke="white" stroke-linejoin="round"/>
<path d="M19.8945 1C17.9556 1 16.3789 2.6023 16.3789 4.57272C16.3789 6.54313 17.9556 8.14543 19.8945 8.14543C21.8335 8.14543 23.4102 6.54313 23.4102 4.57272C23.4102 2.6023 21.8335 1 19.8945 1Z" fill="#1A2DF3" stroke="white" stroke-linejoin="round"/>
<path d="M14.6211 8.14551C12.6822 8.14551 11.1055 9.74781 11.1055 11.7182C11.1055 13.6886 12.6822 15.2909 14.6211 15.2909C16.56 15.2909 18.1367 13.6886 18.1367 11.7182C18.1367 9.74781 16.56 8.14551 14.6211 8.14551Z" fill="#1A2DF3" stroke="white" stroke-linejoin="round"/>
<path fill-rule="evenodd" clip-rule="evenodd" d="M1.37891 17.0771H3.13672C4.59066 17.0771 5.77344 18.2791 5.77344 19.7567V26.9021C5.77344 28.3797 4.59066 29.5817 3.13672 29.5817H1.37891C0.893105 29.5817 0.5 29.1822 0.5 28.6885V17.9703C0.5 17.4766 0.893105 17.0771 1.37891 17.0771ZM2.25781 21.543C2.25781 22.0363 2.65133 22.4362 3.13672 22.4362C3.62211 22.4362 4.01562 22.0363 4.01562 21.543C4.01562 21.0498 3.62211 20.6499 3.13672 20.6499C2.65133 20.6499 2.25781 21.0498 2.25781 21.543Z" fill="#1A2DF3"/>
<path d="M3.13672 16.5771H1.37891V17.5771H3.13672V16.5771ZM6.27344 19.7567C6.27344 18.0106 4.87437 16.5771 3.13672 16.5771V17.5771C4.30696 17.5771 5.27344 18.5476 5.27344 19.7567H6.27344ZM6.27344 26.9021V19.7567H5.27344V26.9021H6.27344ZM3.13672 30.0817C4.87437 30.0817 6.27344 28.6482 6.27344 26.9021H5.27344C5.27344 28.1112 4.30696 29.0817 3.13672 29.0817V30.0817ZM1.37891 30.0817H3.13672V29.0817H1.37891V30.0817ZM0 28.6885C0 29.4507 0.6094 30.0817 1.37891 30.0817V29.0817C1.17681 29.0817 1 28.9136 1 28.6885H0ZM0 17.9703V28.6885H1V17.9703H0ZM1.37891 16.5771C0.6094 16.5771 0 17.2081 0 17.9703H1C1 17.7452 1.17681 17.5771 1.37891 17.5771V16.5771ZM3.13672 21.9362C2.93503 21.9362 2.75781 21.7678 2.75781 21.543H1.75781C1.75781 22.3048 2.36762 22.9362 3.13672 22.9362V21.9362ZM3.51562 21.543C3.51562 21.7678 3.3384 21.9362 3.13672 21.9362V22.9362C3.90581 22.9362 4.51562 22.3048 4.51562 21.543H3.51562ZM3.13672 21.1499C3.3384 21.1499 3.51562 21.3183 3.51562 21.543H4.51562C4.51562 20.7813 3.90581 20.1499 3.13672 20.1499V21.1499ZM2.75781 21.543C2.75781 21.3183 2.93503 21.1499 3.13672 21.1499V20.1499C2.36762 20.1499 1.75781 20.7813 1.75781 21.543H2.75781Z" fill="white"/>
<path d="M29.7761 17.4197C29.052 16.8825 28.0574 16.9915 27.4556 17.6458L22.648 23.6546C22.3254 24.0072 21.687 24.2225 21.3622 24.2225C19.467 24.2225 21.921 24.2225 16.2845 24.2225C15.9498 24.2225 15.6485 24.4109 15.4992 24.7153C15.2804 25.1611 14.7476 25.334 14.3207 25.1157C13.8864 24.8959 13.7096 24.3594 13.9268 23.9181C14.3748 23.0039 15.2786 22.4361 16.2845 22.4361C18.0791 22.4361 18.9844 22.4361 20.7734 22.4361C21.7443 22.4361 22.5312 21.6364 22.5312 20.6498C22.5312 19.6631 21.7443 18.8634 20.7734 18.8634H18.1367C17.4954 18.8634 17.4536 18.7414 16.9273 18.2712C14.7845 16.3551 9.82625 17.2334 7.53125 18.8634V27.7952C8.52441 28.1773 11.3997 29.5815 12.4641 29.5815H20.7734C22.4257 29.5815 24.0024 28.7799 24.992 27.4367L30.149 19.9345C30.7355 19.1426 30.5704 18.0088 29.7761 17.4197Z" fill="#1A2DF3" stroke="white" stroke-linejoin="round"/>
</svg>
