<svg width="31" height="37" viewBox="0 0 31 37" fill="none" xmlns="http://www.w3.org/2000/svg">
<path d="M29.6314 25.5897L13.1828 12.1317C12.9585 11.9493 12.6505 11.9104 12.3903 12.0361C12.1286 12.1586 11.9626 12.4218 11.9626 12.7104V35.1403C11.9626 35.4693 12.1794 35.7609 12.4935 35.8566C12.5652 35.8776 12.6385 35.888 12.7103 35.888C12.9555 35.888 13.1903 35.7669 13.3323 35.5546L19.0923 26.9161H29.1589C29.4744 26.9161 29.7555 26.7172 29.8632 26.4196C29.9694 26.122 29.8766 25.7901 29.6314 25.5897Z" fill="#1A2DF3" stroke="#1A2DF3"/>
<path d="M12.7103 0C12.2975 0 11.9626 0.334977 11.9626 0.747687V6.72897C11.9626 7.14168 12.2975 7.47666 12.7103 7.47666C13.123 7.47666 13.4579 7.14168 13.4579 6.72897V0.747687C13.4579 0.334977 13.123 0 12.7103 0Z" fill="#1A2DF3"/>
<path d="M6.72897 11.9624H0.747687C0.334977 11.9624 0 12.2974 0 12.7101C0 13.1228 0.334977 13.4577 0.747687 13.4577H6.72897C7.14168 13.4577 7.47666 13.1227 7.47666 12.71C7.47666 12.2973 7.14168 11.9624 6.72897 11.9624Z" fill="#1A2DF3"/>
<path d="M24.6729 11.9624H18.6916C18.2789 11.9624 17.9439 12.2974 17.9439 12.7101C17.9439 13.1228 18.2789 13.4577 18.6916 13.4577H24.6729C25.0856 13.4577 25.4206 13.1227 25.4206 12.71C25.4206 12.2973 25.0856 11.9624 24.6729 11.9624Z" fill="#1A2DF3"/>
<path d="M9.00933 7.95238L4.77912 3.72357C4.48753 3.43199 4.01348 3.43199 3.7219 3.72357C3.43031 4.01516 3.43031 4.48921 3.7219 4.78079L7.95218 9.0096C8.09874 9.15463 8.2901 9.22794 8.48152 9.22794C8.67295 9.22794 8.8643 9.15617 9.0094 9.0096C9.30091 8.71794 9.30091 8.24397 9.00933 7.95238Z" fill="#1A2DF3"/>
<path d="M9.00932 16.4125C8.71773 16.121 8.24369 16.121 7.9521 16.4125L3.72182 20.6413C3.43023 20.9329 3.43023 21.407 3.72182 21.6986C3.86839 21.8436 4.05974 21.9169 4.25117 21.9169C4.44259 21.9169 4.63395 21.8437 4.77904 21.6971L9.00932 17.4698C9.30091 17.1781 9.30091 16.7041 9.00932 16.4125Z" fill="#1A2DF3"/>
<path d="M21.6972 3.72357C21.4056 3.43199 20.9316 3.43199 20.64 3.72357L16.4097 7.95238C16.1181 8.24397 16.1181 8.71801 16.4097 9.0096C16.5563 9.15463 16.7476 9.22794 16.9391 9.22794C17.1305 9.22794 17.3218 9.15617 17.4669 9.0096L21.6972 4.78079C21.9888 4.48921 21.9888 4.01516 21.6972 3.72357Z" fill="#1A2DF3"/>
</svg>
