<svg width="42" height="29" viewBox="0 0 42 29" fill="none" xmlns="http://www.w3.org/2000/svg">
<path d="M31.5644 3.75741V8.21161H31.4371C31.4371 9.78122 27.2375 11.0114 22.2318 11.0114C20.3228 11.0538 18.3714 10.8417 16.5049 10.3751V10.5023C15.5716 9.69637 14.5111 9.10241 13.3658 8.72063V8.63578L13.2385 3.92703C13.5779 5.36932 17.4806 6.51468 22.2742 6.51468C27.0678 6.51468 31.4372 5.28447 31.4372 3.75732L31.5644 3.75741Z" fill="#1A2DF3" stroke="white" stroke-linejoin="round"/>
<path d="M22.359 1C27.4071 1 31.6068 2.27259 31.6068 3.79982C31.6068 5.32705 27.3647 6.55718 22.359 6.55718C17.3533 6.55718 13.6202 5.41182 13.2809 3.96952V3.79982C13.2384 2.27259 17.3109 1 22.359 1Z" fill="#1A2DF3" stroke="white" stroke-linejoin="round"/>
<path d="M23.1226 20.9379V24.5013H22.2742C20.4076 24.5437 18.5411 24.3316 16.717 23.9075L16.5898 23.7802C17.7776 22.7196 18.626 21.3621 19.135 19.8774H19.3471C20.2379 19.9623 21.2137 20.0047 22.1893 20.0047H23.0801L23.1226 20.9379Z" fill="#1A2DF3" stroke="white" stroke-linejoin="round"/>
<path d="M22.3165 15.3382L22.7407 15.5503C22.6983 15.6351 22.6983 15.72 22.6983 15.8048C22.6983 15.9321 22.7407 16.0594 22.7832 16.1866V20.1742H22.3165C21.256 20.1742 20.1955 20.1318 19.2623 20.0469H19.0502C19.3471 19.1137 19.4743 18.138 19.4743 17.1623C19.4743 16.526 19.3895 15.8898 19.3046 15.2534H19.5167C20.4501 15.3382 21.3834 15.3382 22.3165 15.3382Z" fill="#1A2DF3" stroke="white" stroke-linejoin="round"/>
<path d="M16.5049 10.3749C18.3714 10.8415 20.3228 11.0536 22.2318 11.0112C27.2375 11.0112 31.4371 9.78104 31.4371 8.21143H31.5643V13.2171C26.8981 13.2171 23.0801 14.3201 22.6135 15.7199L22.2317 15.5078C21.3409 15.5078 20.4925 15.4654 19.6016 15.3806H19.3895C18.9653 13.4717 17.9472 11.7324 16.4624 10.4598L16.5049 10.3749Z" fill="#1A2DF3" stroke="white" stroke-linejoin="round"/>
<path d="M40.897 20.4712V24.9679C40.897 26.495 36.7821 27.7677 31.7764 27.7677C26.7708 27.7677 22.7832 26.5375 22.7832 25.0103V20.9378C23.4619 22.2529 27.1525 23.271 31.6067 23.271C36.0609 23.271 40.7697 21.9984 40.7697 20.4712H40.897Z" fill="#1A2DF3" stroke="white" stroke-linejoin="round"/>
<path d="M40.897 16.0596V20.4714H40.7698C40.7698 21.9985 36.6125 23.2712 31.6068 23.2712C26.6011 23.2712 23.462 22.2531 22.6984 20.938V16.3141C23.2499 17.714 27.0678 18.7745 31.6493 18.7745C36.2308 18.7745 40.685 17.5443 40.8122 16.0596H40.897Z" fill="#1A2DF3" stroke="white" stroke-linejoin="round"/>
<path d="M22.5711 16.314C22.5287 16.1868 22.4863 16.1019 22.4863 15.9746C22.4863 15.8898 22.4863 15.8049 22.5286 15.7201C22.9953 14.3202 26.8556 13.1748 31.5644 13.1748H31.6067C36.6548 13.1748 40.8969 14.405 40.8969 15.9746V16.0595C40.7697 17.5442 36.57 18.8168 31.6067 18.8168C26.6435 18.8168 23.1226 17.7139 22.5711 16.314Z" fill="#1A2DF3" stroke="white" stroke-linejoin="round"/>
<path d="M19.6017 15.3809C19.6865 15.9748 19.7714 16.6111 19.7714 17.205C19.7714 18.1383 19.6441 19.0716 19.3896 19.92C18.8806 21.4471 17.9897 22.847 16.8019 23.9075C15.1475 25.4347 12.9841 26.2831 10.7357 26.2831C5.72995 26.6225 1.3606 22.847 1.0212 17.799C0.681798 12.7933 4.45728 8.42392 9.50543 8.08452C9.9296 8.04214 10.3539 8.04214 10.778 8.08452C11.6688 8.08452 12.6021 8.21176 13.4505 8.46631C14.6384 8.8481 15.7412 9.48443 16.6745 10.2904C18.1169 11.6479 19.1774 13.4295 19.6017 15.3809Z" fill="#1A2DF3" stroke="white" stroke-linejoin="round"/>
<circle cx="10.3539" cy="17.2046" r="4.53905" fill="#1A2DF3" stroke="white" stroke-linejoin="round"/>
</svg>
