<svg width="31" height="31" viewBox="0 0 31 31" fill="none" xmlns="http://www.w3.org/2000/svg">
<path fill-rule="evenodd" clip-rule="evenodd" d="M12.9512 23.2031H8.70312C8.23352 23.2031 7.85352 22.8231 7.85352 22.3535V1.84961C7.85352 1.38 8.23352 1 8.70312 1H22.2969C22.7665 1 23.1465 1.38 23.1465 1.84961V22.3535C23.1465 22.8231 22.7665 23.2031 22.2969 23.2031H18.0488L16.3496 24.9023H14.6504L12.9512 23.2031ZM28.3008 28.3008H29.1504C29.62 28.3008 30 28.6808 30 29.1504C30 29.62 29.62 30 29.1504 30H1.84961C1.38 30 1 29.62 1 29.1504C1 28.6808 1.38 28.3008 1.84961 28.3008H2.69922L4.75618 27.4512H7.06649L9.55273 28.3008H12.9512L14.6504 27.4512H16.3496L18.0488 28.3008H21.4473L23.379 27.4512H26.5449L28.3008 28.3008Z" fill="#1A2DF3"/>
<path d="M12.9512 23.2031L13.3047 22.8496C13.211 22.7558 13.0838 22.7031 12.9512 22.7031V23.2031ZM18.0488 23.2031V22.7031C17.9162 22.7031 17.789 22.7558 17.6953 22.8496L18.0488 23.2031ZM16.3496 24.9023V25.4023C16.4822 25.4023 16.6094 25.3497 16.7032 25.2559L16.3496 24.9023ZM14.6504 24.9023L14.2968 25.2559C14.3906 25.3497 14.5178 25.4023 14.6504 25.4023V24.9023ZM28.3008 28.3008L28.083 28.7509C28.1509 28.7837 28.2254 28.8008 28.3008 28.8008V28.3008ZM2.69922 28.3008V28.8008C2.76471 28.8008 2.82957 28.7879 2.8901 28.7629L2.69922 28.3008ZM4.75618 27.4512V26.9512C4.69069 26.9512 4.62583 26.964 4.5653 26.989L4.75618 27.4512ZM7.06649 27.4512L7.22818 26.978C7.17613 26.9602 7.1215 26.9512 7.06649 26.9512V27.4512ZM9.55273 28.3008L9.39105 28.7739C9.4431 28.7917 9.49773 28.8008 9.55273 28.8008V28.3008ZM12.9512 28.3008V28.8008C13.0288 28.8008 13.1054 28.7827 13.1748 28.748L12.9512 28.3008ZM14.6504 27.4512V26.9512C14.5728 26.9512 14.4962 26.9692 14.4268 27.004L14.6504 27.4512ZM16.3496 27.4512L16.5732 27.004C16.5038 26.9692 16.4272 26.9512 16.3496 26.9512V27.4512ZM18.0488 28.3008L17.8252 28.748C17.8946 28.7827 17.9712 28.8008 18.0488 28.8008V28.3008ZM21.4473 28.3008V28.8008C21.5166 28.8008 21.5851 28.7864 21.6486 28.7585L21.4473 28.3008ZM23.379 27.4512V26.9512C23.3097 26.9512 23.2411 26.9656 23.1777 26.9935L23.379 27.4512ZM26.5449 27.4512L26.7627 27.0011C26.6948 26.9682 26.6204 26.9512 26.5449 26.9512V27.4512ZM8.70312 23.7031H12.9512V22.7031H8.70312V23.7031ZM7.35352 22.3535C7.35352 23.0993 7.95738 23.7031 8.70312 23.7031V22.7031C8.50966 22.7031 8.35352 22.547 8.35352 22.3535H7.35352ZM7.35352 1.84961V22.3535H8.35352V1.84961H7.35352ZM8.70312 0.5C7.95738 0.5 7.35352 1.10386 7.35352 1.84961H8.35352C8.35352 1.65614 8.50966 1.5 8.70312 1.5V0.5ZM22.2969 0.5H8.70312V1.5H22.2969V0.5ZM23.6465 1.84961C23.6465 1.10386 23.0426 0.5 22.2969 0.5V1.5C22.4903 1.5 22.6465 1.65614 22.6465 1.84961H23.6465ZM23.6465 22.3535V1.84961H22.6465V22.3535H23.6465ZM22.2969 23.7031C23.0426 23.7031 23.6465 23.0993 23.6465 22.3535H22.6465C22.6465 22.547 22.4903 22.7031 22.2969 22.7031V23.7031ZM18.0488 23.7031H22.2969V22.7031H18.0488V23.7031ZM16.7032 25.2559L18.4024 23.5567L17.6953 22.8496L15.9961 24.5488L16.7032 25.2559ZM14.6504 25.4023H16.3496V24.4023H14.6504V25.4023ZM12.5976 23.5567L14.2968 25.2559L15.0039 24.5488L13.3047 22.8496L12.5976 23.5567ZM29.1504 27.8008H28.3008V28.8008H29.1504V27.8008ZM30.5 29.1504C30.5 28.4046 29.8961 27.8008 29.1504 27.8008V28.8008C29.3439 28.8008 29.5 28.9569 29.5 29.1504H30.5ZM29.1504 30.5C29.8961 30.5 30.5 29.8961 30.5 29.1504H29.5C29.5 29.3439 29.3439 29.5 29.1504 29.5V30.5ZM1.84961 30.5H29.1504V29.5H1.84961V30.5ZM0.5 29.1504C0.5 29.8961 1.10386 30.5 1.84961 30.5V29.5C1.65614 29.5 1.5 29.3439 1.5 29.1504H0.5ZM1.84961 27.8008C1.10386 27.8008 0.5 28.4046 0.5 29.1504H1.5C1.5 28.9569 1.65614 28.8008 1.84961 28.8008V27.8008ZM2.69922 27.8008H1.84961V28.8008H2.69922V27.8008ZM4.5653 26.989L2.50834 27.8386L2.8901 28.7629L4.94706 27.9133L4.5653 26.989ZM7.06649 26.9512H4.75618V27.9512H7.06649V26.9512ZM9.71442 27.8276L7.22818 26.978L6.90481 27.9243L9.39105 28.7739L9.71442 27.8276ZM12.9512 27.8008H9.55273V28.8008H12.9512V27.8008ZM14.4268 27.004L12.7276 27.8536L13.1748 28.748L14.874 27.8984L14.4268 27.004ZM16.3496 26.9512H14.6504V27.9512H16.3496V26.9512ZM18.2724 27.8536L16.5732 27.004L16.126 27.8984L17.8252 28.748L18.2724 27.8536ZM21.4473 27.8008H18.0488V28.8008H21.4473V27.8008ZM23.1777 26.9935L21.246 27.8431L21.6486 28.7585L23.5803 27.9089L23.1777 26.9935ZM26.5449 26.9512H23.379V27.9512H26.5449V26.9512ZM28.5186 27.8507L26.7627 27.0011L26.3271 27.9013L28.083 28.7509L28.5186 27.8507Z" fill="white"/>
<path fill-rule="evenodd" clip-rule="evenodd" d="M14.1808 9.46311L17.5792 7.76389C17.999 7.55398 18.1691 7.04371 17.9592 6.62389C17.7485 6.20322 17.2374 6.03398 16.8192 6.24389L13.4208 7.94311C13.001 8.15302 12.8309 8.66329 13.0408 9.08311C13.2497 9.4997 13.7567 9.6737 14.1808 9.46311ZM8.54714 24.9023H9.55273C10.4912 24.9023 11.252 25.6631 11.252 26.6015C11.252 27.54 10.4912 28.3008 9.55273 28.3008H2.69922C1.76074 28.3008 1 27.54 1 26.6015C1 25.6631 1.76074 24.9023 2.69922 24.9023H3.70482C4.05587 23.9147 5.04612 23.2031 6.1543 23.2031C7.26247 23.2031 8.19608 23.9147 8.54714 24.9023ZM27.2385 24.9023H28.3008C29.2393 24.9023 30 25.6631 30 26.6015C30 27.54 29.2393 28.3008 28.3008 28.3008H21.4473C20.5088 28.3008 19.748 27.54 19.748 26.6015C19.748 25.6631 20.5088 24.9023 21.4473 24.9023H22.4529C22.8039 23.9147 23.7375 23.2031 24.8457 23.2031C25.9539 23.2031 26.8875 23.9147 27.2385 24.9023ZM18.0488 28.3008H12.9512V23.2031H18.0488V28.3008ZM14.1808 17.9592L17.5792 16.26C17.999 16.0501 18.1691 15.5398 17.9592 15.12C17.7485 14.7002 17.2374 14.5317 16.8192 14.74L13.4208 16.4392C13.001 16.6491 12.8309 17.1594 13.0408 17.5792C13.2497 17.9958 13.7567 18.1698 14.1808 17.9592ZM11.7216 13.0408L18.5184 9.64232C18.9366 9.43491 19.4485 9.60166 19.6584 10.0223C19.8684 10.4421 19.6983 10.9524 19.2784 11.1623L12.4816 14.5608C12.0575 14.7714 11.5504 14.5974 11.3416 14.1808C11.1316 13.7609 11.3017 13.2507 11.7216 13.0408Z" fill="#1A2DF3"/>
<path d="M17.5792 7.76389L17.3556 7.31668V7.31668L17.5792 7.76389ZM14.1808 9.46311L14.4032 9.91094L14.4044 9.91033L14.1808 9.46311ZM17.9592 6.62389L18.4064 6.40028L18.4063 6.39992L17.9592 6.62389ZM16.8192 6.24389L17.0428 6.6911L17.0435 6.69075L16.8192 6.24389ZM13.4208 7.94311L13.1972 7.49589V7.49589L13.4208 7.94311ZM13.0408 9.08311L12.5936 9.30672L12.5938 9.30723L13.0408 9.08311ZM8.54714 24.9023L8.07601 25.0698C8.14688 25.2692 8.33555 25.4023 8.54714 25.4023V24.9023ZM3.70482 24.9023V25.4023C3.9164 25.4023 4.10508 25.2692 4.17594 25.0698L3.70482 24.9023ZM27.2385 24.9023L26.7674 25.0698C26.8383 25.2692 27.027 25.4023 27.2385 25.4023V24.9023ZM22.4529 24.9023V25.4023C22.6644 25.4023 22.8531 25.2692 22.924 25.0698L22.4529 24.9023ZM12.9512 28.3008H12.4512C12.4512 28.5769 12.675 28.8008 12.9512 28.8008V28.3008ZM18.0488 28.3008V28.8008C18.325 28.8008 18.5488 28.5769 18.5488 28.3008H18.0488ZM12.9512 23.2031V22.7031C12.675 22.7031 12.4512 22.927 12.4512 23.2031H12.9512ZM18.0488 23.2031H18.5488C18.5488 22.927 18.325 22.7031 18.0488 22.7031V23.2031ZM17.5792 16.26L17.3556 15.8128V15.8128L17.5792 16.26ZM14.1808 17.9592L14.4032 18.407L14.4044 18.4064L14.1808 17.9592ZM17.9592 15.12L18.4064 14.8964L18.4061 14.8957L17.9592 15.12ZM16.8192 14.74L16.5963 14.2924L16.5956 14.2928L16.8192 14.74ZM13.4208 16.4392L13.6444 16.8864L13.6444 16.8864L13.4208 16.4392ZM13.0408 17.5792L12.5936 17.8028L12.5938 17.8033L13.0408 17.5792ZM18.5184 9.64232L18.2963 9.19439L18.2948 9.19511L18.5184 9.64232ZM11.7216 13.0408L11.498 12.5935L11.7216 13.0408ZM19.6584 10.0223L19.211 10.2456L19.2112 10.2459L19.6584 10.0223ZM12.4816 14.5608L12.704 15.0086L12.7052 15.008L12.4816 14.5608ZM11.3416 14.1808L10.8943 14.4044L10.8946 14.4049L11.3416 14.1808ZM17.3556 7.31668L13.9572 9.0159L14.4044 9.91033L17.8028 8.21111L17.3556 7.31668ZM17.512 6.84749C17.5984 7.02033 17.5284 7.23027 17.3556 7.31668L17.8028 8.21111C18.4696 7.8777 18.7398 7.06709 18.4064 6.40028L17.512 6.84749ZM17.0435 6.69075C17.2143 6.60503 17.4249 6.67372 17.5122 6.84786L18.4063 6.39992C18.072 5.73272 17.2605 5.46292 16.5949 5.79702L17.0435 6.69075ZM13.6444 8.39032L17.0428 6.6911L16.5956 5.79667L13.1972 7.49589L13.6444 8.39032ZM13.488 8.85951C13.4016 8.68667 13.4716 8.47673 13.6444 8.39032L13.1972 7.49589C12.5304 7.8293 12.2602 8.63991 12.5936 9.30672L13.488 8.85951ZM13.9584 9.01529C13.7826 9.10259 13.574 9.03104 13.4877 8.85899L12.5938 9.30723C12.9253 9.96837 13.7308 10.2448 14.4032 9.91094L13.9584 9.01529ZM9.55273 24.4023H8.54714V25.4023H9.55273V24.4023ZM11.752 26.6015C11.752 25.3869 10.7674 24.4023 9.55273 24.4023V25.4023C10.2151 25.4023 10.752 25.9392 10.752 26.6015H11.752ZM9.55273 28.8008C10.7674 28.8008 11.752 27.8162 11.752 26.6015H10.752C10.752 27.2639 10.2151 27.8008 9.55273 27.8008V28.8008ZM2.69922 28.8008H9.55273V27.8008H2.69922V28.8008ZM0.5 26.6015C0.5 27.8162 1.4846 28.8008 2.69922 28.8008V27.8008C2.03688 27.8008 1.5 27.2639 1.5 26.6015H0.5ZM2.69922 24.4023C1.4846 24.4023 0.5 25.3869 0.5 26.6015H1.5C1.5 25.9392 2.03688 25.4023 2.69922 25.4023V24.4023ZM3.70482 24.4023H2.69922V25.4023H3.70482V24.4023ZM6.1543 22.7031C4.83726 22.7031 3.65652 23.5453 3.23369 24.7349L4.17594 25.0698C4.45523 24.2841 5.25498 23.7031 6.1543 23.7031V22.7031ZM9.01826 24.7349C8.59978 23.5576 7.48416 22.7031 6.1543 22.7031V23.7031C7.04078 23.7031 7.79237 24.2718 8.07601 25.0698L9.01826 24.7349ZM28.3008 24.4023H27.2385V25.4023H28.3008V24.4023ZM30.5 26.6015C30.5 25.3869 29.5154 24.4023 28.3008 24.4023V25.4023C28.9631 25.4023 29.5 25.9392 29.5 26.6015H30.5ZM28.3008 28.8008C29.5154 28.8008 30.5 27.8162 30.5 26.6015H29.5C29.5 27.2639 28.9631 27.8008 28.3008 27.8008V28.8008ZM21.4473 28.8008H28.3008V27.8008H21.4473V28.8008ZM19.248 26.6015C19.248 27.8162 20.2326 28.8008 21.4473 28.8008V27.8008C20.7849 27.8008 20.248 27.2639 20.248 26.6015H19.248ZM21.4473 24.4023C20.2326 24.4023 19.248 25.3869 19.248 26.6015H20.248C20.248 25.9392 20.7849 25.4023 21.4473 25.4023V24.4023ZM22.4529 24.4023H21.4473V25.4023H22.4529V24.4023ZM24.8457 22.7031C23.5158 22.7031 22.4002 23.5576 21.9817 24.7349L22.924 25.0698C23.2076 24.2718 23.9592 23.7031 24.8457 23.7031V22.7031ZM27.7097 24.7349C27.2912 23.5576 26.1756 22.7031 24.8457 22.7031V23.7031C25.7322 23.7031 26.4838 24.2718 26.7674 25.0698L27.7097 24.7349ZM12.9512 28.8008H18.0488V27.8008H12.9512V28.8008ZM12.4512 23.2031V28.3008H13.4512V23.2031H12.4512ZM18.0488 22.7031H12.9512V23.7031H18.0488V22.7031ZM18.5488 28.3008V23.2031H17.5488V28.3008H18.5488ZM17.3556 15.8128L13.9572 17.512L14.4044 18.4064L17.8028 16.7072L17.3556 15.8128ZM17.512 15.3436C17.5984 15.5164 17.5284 15.7264 17.3556 15.8128L17.8028 16.7072C18.4696 16.3738 18.7398 15.5632 18.4064 14.8964L17.512 15.3436ZM17.0421 15.1875C17.2145 15.1017 17.4257 15.1716 17.5124 15.3443L18.4061 14.8957C18.0713 14.2287 17.2603 13.9617 16.5963 14.2924L17.0421 15.1875ZM13.6444 16.8864L17.0428 15.1872L16.5956 14.2928L13.1972 15.992L13.6444 16.8864ZM13.488 17.3556C13.4016 17.1828 13.4716 16.9728 13.6444 16.8864L13.1972 15.992C12.5304 16.3254 12.2602 17.136 12.5936 17.8028L13.488 17.3556ZM13.9584 17.5114C13.7826 17.5987 13.574 17.5271 13.4877 17.3551L12.5938 17.8033C12.9253 18.4645 13.7308 18.7409 14.4032 18.407L13.9584 17.5114ZM18.2948 9.19511L11.498 12.5935L11.9452 13.488L18.742 10.0895L18.2948 9.19511ZM20.1058 9.79908C19.7711 9.12827 18.9579 8.86621 18.2963 9.1944L18.7406 10.0903C18.9153 10.0036 19.126 10.075 19.211 10.2456L20.1058 9.79908ZM19.502 11.6095C20.1689 11.2761 20.4391 10.4655 20.1057 9.79872L19.2112 10.2459C19.2976 10.4188 19.2277 10.6287 19.0548 10.7151L19.502 11.6095ZM12.7052 15.008L19.502 11.6095L19.0548 10.7151L12.258 14.1136L12.7052 15.008ZM10.8946 14.4049C11.2261 15.066 12.0316 15.3425 12.704 15.0086L12.2592 14.1129C12.0834 14.2002 11.8748 14.1287 11.7885 13.9566L10.8946 14.4049ZM11.498 12.5935C10.8311 12.927 10.5609 13.7376 10.8943 14.4044L11.7888 13.9572C11.7024 13.7843 11.7723 13.5744 11.9452 13.488L11.498 12.5935Z" fill="white"/>
</svg>
