<svg width="31" height="29" viewBox="0 0 31 29" fill="none" xmlns="http://www.w3.org/2000/svg">
<path d="M15.5 22.887V25.1037C15.5 26.6012 12.253 27.813 8.25 27.813C4.24696 27.813 1 26.6012 1 25.1037V21.6555L15.5 22.887Z" fill="#1A2DF3" stroke="white" stroke-linejoin="round"/>
<path d="M15.5 22.887V25.1037C15.5 26.6012 18.747 27.813 22.75 27.813C26.753 27.813 30 26.6012 30 25.1037V21.6555L15.5 22.887Z" fill="#1A2DF3" stroke="white" stroke-linejoin="round"/>
<path d="M14.7284 22.872C14.4529 23.0705 14.1561 23.2406 13.8429 23.3794C12.0718 24.0771 10.1663 24.4128 8.25 24.3646C6.33372 24.4128 4.4282 24.0771 2.65714 23.3794C1.62143 22.9114 1 22.3105 1 21.6553C1 20.1578 4.24696 18.946 8.25 18.946L14.7284 22.872Z" fill="#1A2DF3" stroke="white" stroke-linejoin="round"/>
<path d="M16.2715 22.872C16.547 23.0705 16.8438 23.2406 17.157 23.3794C18.9281 24.0771 20.8336 24.4128 22.7499 24.3646C24.6662 24.4128 26.5717 24.0771 28.3427 23.3794C29.3784 22.9114 29.9999 22.3105 29.9999 21.6553C29.9999 20.1578 26.7529 18.946 22.7499 18.946L16.2715 22.872Z" fill="#1A2DF3" stroke="white" stroke-linejoin="round"/>
<path d="M22.75 16.7295V20.1777C22.75 21.6752 19.503 22.8869 15.5 22.8869C11.497 22.8869 8.25 21.6752 8.25 20.1777V16.7295H22.75Z" fill="#1A2DF3" stroke="white" stroke-linejoin="round"/>
<path d="M20.6786 6.91104H19.125V12.3296C19.125 12.8737 18.6613 13.3148 18.0893 13.3148H12.9108C12.3387 13.3148 11.875 12.8737 11.875 12.3296V6.91104H10.3215C10.1121 6.911 9.92327 6.79099 9.84314 6.60694C9.763 6.4229 9.80729 6.21106 9.95535 6.07018L15.1339 1.14423C15.3361 0.951925 15.6639 0.951925 15.8662 1.14423L21.0447 6.07018C21.1928 6.21106 21.2371 6.4229 21.1569 6.60694C21.0768 6.79099 20.888 6.911 20.6786 6.91104Z" fill="#1A2DF3" stroke="white" stroke-linejoin="round"/>
<path d="M12.5658 14.2636C13.5345 14.1007 14.5163 14.0192 15.5 14.0203C19.503 14.0203 22.75 15.2321 22.75 16.7296C22.75 17.3847 22.1286 17.9857 21.0929 18.4536C19.3218 19.1514 17.4163 19.487 15.5 19.4388C13.5837 19.487 11.6782 19.1514 9.90714 18.4536C8.87143 17.9857 8.25 17.3847 8.25 16.7296C8.25 15.8852 9.19457 15.3276 9.89679 15.0109C10.4832 14.7542 11.0969 14.5581 11.7274 14.4262C12.006 14.3651 12.2855 14.3109 12.5658 14.2636Z" fill="#1A2DF3" stroke="white" stroke-linejoin="round"/>
</svg>
